<?xml version="1.0" encoding="UTF-8" standalone="no"?>
<svg width="64px" height="64px" viewBox="0 0 64 64" version="1.1" xmlns="http://www.w3.org/2000/svg" xmlns:xlink="http://www.w3.org/1999/xlink">
    <!-- Generator: Sketch 44.1 (41455) - http://www.bohemiancoding.com/sketch -->
    <title>Artboard Copy 20</title>
    <desc>Created with Sketch.</desc>
    <defs>
        <linearGradient x1="0%" y1="50%" x2="100%" y2="50%" id="linearGradient-1">
            <stop stop-color="#00D9FF" offset="0%"></stop>
            <stop stop-color="#00AEFF" offset="100%"></stop>
        </linearGradient>
    </defs>
    <g id="64×64px" stroke="none" stroke-width="1" fill="none" fill-rule="evenodd">
        <g id="Artboard-Copy-20">
            <g id="Page-1" fill="url(#linearGradient-1)">
                <path d="M64,32 C64,49.673 49.673,64 32,64 C14.327,64 0,49.673 0,32 C0,14.327 14.327,0 32,0 C49.673,0 64,14.327 64,32" id="Fill-1"></path>
            </g>
            <g id="Page-1" transform="translate(16.000000, 14.000000)" stroke="#FFFFFF" stroke-width="3" stroke-linecap="round" stroke-linejoin="round">
                <path d="M21.5748,8.5 C21.5748,12.918 17.9928,16.5 13.5748,16.5 C9.1568,16.5 5.5748,12.918 5.5748,8.5 C5.5748,4.082 9.1568,0.5 13.5748,0.5 C17.9928,0.5 21.5748,4.082 21.5748,8.5 Z" id="Stroke-1"></path>
                <path d="M27.2584,13.9538 C30.6234,15.5608 33.0444,18.7398 33.5004,22.4998" id="Stroke-3"></path>
                <path d="M26.5,2.5 C28.497,3.79 29.812,5.991 29.812,8.49 C29.812,10.676 28.805,12.634 27.216,13.954" id="Stroke-5"></path>
                <path d="M26.5,32.5 L26.5,28.778 C26.5,21.997 20.68,16.5 13.5,16.5 C6.32,16.5 0.5,21.997 0.5,28.778 L0.5,32.5" id="Stroke-7"></path>
            </g>
        </g>
    </g>
</svg>